<?xml version="1.0" encoding="UTF-8"?><svg xmlns="http://www.w3.org/2000/svg" xmlns:xlink="http://www.w3.org/1999/xlink" width="1125pt" zoomAndPan="magnify" viewBox="0 0 1125 1124.99995" height="1124.99995pt" preserveAspectRatio="xMidYMid meet" version="1.2"><defs><g/><clipPath xml:id="clip1" id="clip1"><path d="M 207 537 L 349.546875 537 L 349.546875 667 L 207 667 Z M 207 537 "/></clipPath></defs><g xml:id="surface1" id="surface1"><path style=" stroke:none;fill-rule:nonzero;fill:rgb(94.898987%,83.139038%,73.728943%);fill-opacity:1;" d="M 958.5625 451.433594 L 610.695312 374.761719 C 584.507812 368.972656 541.519531 368.972656 515.332031 374.761719 L 167.460938 451.433594 C 141.273438 457.21875 119.78125 483.984375 119.78125 510.925781 L 119.78125 699.339844 C 119.78125 726.824219 141.273438 754.132812 167.460938 760.097656 L 515.332031 838.578125 C 541.519531 844.546875 584.507812 844.546875 610.695312 838.578125 L 958.5625 760.097656 C 984.753906 754.132812 1006.246094 726.824219 1006.246094 699.339844 L 1006.246094 510.925781 C 1006.246094 483.984375 984.753906 457.21875 958.5625 451.433594 Z M 958.5625 451.433594 "/><path style=" stroke:none;fill-rule:nonzero;fill:rgb(6.669617%,10.5896%,11.759949%);fill-opacity:1;" d="M 944.140625 464.335938 L 608.632812 390.324219 C 583.375 384.738281 541.914062 384.738281 516.65625 390.324219 L 181.148438 464.335938 C 155.890625 469.921875 135.160156 495.753906 135.160156 521.761719 L 135.160156 688.542969 C 135.160156 715.074219 155.890625 741.429688 181.148438 747.191406 L 516.65625 822.945312 C 541.914062 828.707031 583.375 828.707031 608.632812 822.945312 L 944.140625 747.191406 C 969.398438 741.429688 990.128906 715.074219 990.128906 688.542969 L 990.128906 521.761719 C 990.128906 495.753906 969.398438 469.921875 944.140625 464.335938 Z M 944.140625 464.335938 "/><g style="fill:rgb(83.139038%,65.879822%,52.549744%);fill-opacity:1;"><g transform="translate(369.386441, 607.207258)"><path style="stroke:none;" d="M 30.125 -56.515625 C 27.914062 -56.515625 25.800781 -55.421875 23.78125 -53.234375 C 21.757812 -51.054688 20.28125 -48.890625 19.34375 -46.734375 L 17.921875 -43.484375 L 4.890625 -49.796875 C 5.054688 -50.347656 5.332031 -51.066406 5.71875 -51.953125 C 6.113281 -52.835938 7.03125 -54.425781 8.46875 -56.71875 C 9.90625 -59.019531 11.492188 -61.039062 13.234375 -62.78125 C 14.984375 -64.53125 17.363281 -66.125 20.375 -67.5625 C 23.394531 -69 26.644531 -69.71875 30.125 -69.71875 C 34.613281 -69.71875 38.53125 -69.148438 41.875 -68.015625 C 45.21875 -66.878906 47.800781 -65.46875 49.625 -63.78125 C 51.457031 -62.09375 52.941406 -60.097656 54.078125 -57.796875 C 55.210938 -55.503906 55.929688 -53.414062 56.234375 -51.53125 C 56.535156 -49.65625 56.6875 -47.695312 56.6875 -45.65625 C 56.6875 -42.664062 55.851562 -39.523438 54.1875 -36.234375 C 52.53125 -32.941406 50.523438 -30.007812 48.171875 -27.4375 C 45.828125 -24.863281 43.460938 -22.507812 41.078125 -20.375 C 38.703125 -18.25 36.6875 -16.601562 35.03125 -15.4375 L 32.53125 -13.6875 L 57.9375 -13.6875 L 57.9375 0 L 4.5625 0 L 4.5625 -3.90625 C 5.5 -4.675781 6.769531 -5.738281 8.375 -7.09375 C 9.988281 -8.445312 12.8125 -11.03125 16.84375 -14.84375 C 20.882812 -18.664062 24.453125 -22.25 27.546875 -25.59375 C 30.648438 -28.945312 33.472656 -32.53125 36.015625 -36.34375 C 38.566406 -40.164062 39.84375 -43.269531 39.84375 -45.65625 C 39.84375 -46.59375 39.742188 -47.53125 39.546875 -48.46875 C 39.359375 -49.414062 38.984375 -50.566406 38.421875 -51.921875 C 37.867188 -53.273438 36.875 -54.378906 35.4375 -55.234375 C 34 -56.085938 32.226562 -56.515625 30.125 -56.515625 Z M 30.125 -56.515625 "/></g></g><g style="fill:rgb(83.139038%,65.879822%,52.549744%);fill-opacity:1;"><g transform="translate(431.879303, 607.207258)"><path style="stroke:none;" d="M 30.125 -56.515625 C 27.914062 -56.515625 25.800781 -55.421875 23.78125 -53.234375 C 21.757812 -51.054688 20.28125 -48.890625 19.34375 -46.734375 L 17.921875 -43.484375 L 4.890625 -49.796875 C 5.054688 -50.347656 5.332031 -51.066406 5.71875 -51.953125 C 6.113281 -52.835938 7.03125 -54.425781 8.46875 -56.71875 C 9.90625 -59.019531 11.492188 -61.039062 13.234375 -62.78125 C 14.984375 -64.53125 17.363281 -66.125 20.375 -67.5625 C 23.394531 -69 26.644531 -69.71875 30.125 -69.71875 C 34.613281 -69.71875 38.53125 -69.148438 41.875 -68.015625 C 45.21875 -66.878906 47.800781 -65.46875 49.625 -63.78125 C 51.457031 -62.09375 52.941406 -60.097656 54.078125 -57.796875 C 55.210938 -55.503906 55.929688 -53.414062 56.234375 -51.53125 C 56.535156 -49.65625 56.6875 -47.695312 56.6875 -45.65625 C 56.6875 -42.664062 55.851562 -39.523438 54.1875 -36.234375 C 52.53125 -32.941406 50.523438 -30.007812 48.171875 -27.4375 C 45.828125 -24.863281 43.460938 -22.507812 41.078125 -20.375 C 38.703125 -18.25 36.6875 -16.601562 35.03125 -15.4375 L 32.53125 -13.6875 L 57.9375 -13.6875 L 57.9375 0 L 4.5625 0 L 4.5625 -3.90625 C 5.5 -4.675781 6.769531 -5.738281 8.375 -7.09375 C 9.988281 -8.445312 12.8125 -11.03125 16.84375 -14.84375 C 20.882812 -18.664062 24.453125 -22.25 27.546875 -25.59375 C 30.648438 -28.945312 33.472656 -32.53125 36.015625 -36.34375 C 38.566406 -40.164062 39.84375 -43.269531 39.84375 -45.65625 C 39.84375 -46.59375 39.742188 -47.53125 39.546875 -48.46875 C 39.359375 -49.414062 38.984375 -50.566406 38.421875 -51.921875 C 37.867188 -53.273438 36.875 -54.378906 35.4375 -55.234375 C 34 -56.085938 32.226562 -56.515625 30.125 -56.515625 Z M 30.125 -56.515625 "/></g></g><g style="fill:rgb(83.139038%,65.879822%,52.549744%);fill-opacity:1;"><g transform="translate(494.372165, 607.207258)"><path style="stroke:none;" d=""/></g></g><g style="fill:rgb(83.139038%,65.879822%,52.549744%);fill-opacity:1;"><g transform="translate(517.028939, 607.207258)"><path style="stroke:none;" d="M 41.421875 -14.109375 C 43.796875 -14.109375 46.101562 -14.46875 48.34375 -15.1875 C 50.582031 -15.90625 52.226562 -16.597656 53.28125 -17.265625 L 54.859375 -18.34375 L 61.5 -5.0625 C 61.28125 -4.894531 60.976562 -4.671875 60.59375 -4.390625 C 60.207031 -4.117188 59.304688 -3.609375 57.890625 -2.859375 C 56.484375 -2.117188 54.976562 -1.46875 53.375 -0.90625 C 51.769531 -0.351562 49.664062 0.140625 47.0625 0.578125 C 44.457031 1.023438 41.773438 1.25 39.015625 1.25 C 32.648438 1.25 26.613281 -0.3125 20.90625 -3.4375 C 15.207031 -6.570312 10.613281 -10.875 7.125 -16.34375 C 3.644531 -21.820312 1.90625 -27.742188 1.90625 -34.109375 C 1.90625 -38.921875 2.925781 -43.539062 4.96875 -47.96875 C 7.019531 -52.394531 9.75 -56.1875 13.15625 -59.34375 C 16.5625 -62.5 20.53125 -65.015625 25.0625 -66.890625 C 29.601562 -68.773438 34.253906 -69.71875 39.015625 -69.71875 C 43.441406 -69.71875 47.519531 -69.191406 51.25 -68.140625 C 54.988281 -67.085938 57.628906 -66.035156 59.171875 -64.984375 L 61.5 -63.40625 L 54.859375 -50.125 C 54.472656 -50.457031 53.890625 -50.859375 53.109375 -51.328125 C 52.335938 -51.804688 50.789062 -52.429688 48.46875 -53.203125 C 46.144531 -53.972656 43.796875 -54.359375 41.421875 -54.359375 C 37.648438 -54.359375 34.269531 -53.75 31.28125 -52.53125 C 28.300781 -51.320312 25.9375 -49.71875 24.1875 -47.71875 C 22.445312 -45.726562 21.117188 -43.582031 20.203125 -41.28125 C 19.296875 -38.988281 18.84375 -36.65625 18.84375 -34.28125 C 18.84375 -29.082031 20.789062 -24.421875 24.6875 -20.296875 C 28.59375 -16.171875 34.171875 -14.109375 41.421875 -14.109375 Z M 41.421875 -14.109375 "/></g></g><g style="fill:rgb(83.139038%,65.879822%,52.549744%);fill-opacity:1;"><g transform="translate(579.521802, 607.207258)"><path style="stroke:none;" d="M 1.90625 -34.28125 C 1.90625 -44.1875 5.28125 -52.566406 12.03125 -59.421875 C 18.78125 -66.285156 26.914062 -69.71875 36.4375 -69.71875 C 46.007812 -69.71875 54.140625 -66.300781 60.828125 -59.46875 C 67.523438 -52.632812 70.875 -44.238281 70.875 -34.28125 C 70.875 -24.257812 67.582031 -15.832031 61 -9 C 54.414062 -2.164062 46.226562 1.25 36.4375 1.25 C 26.414062 1.25 18.15625 -2.140625 11.65625 -8.921875 C 5.15625 -15.703125 1.90625 -24.15625 1.90625 -34.28125 Z M 18.765625 -34.28125 C 18.765625 -30.6875 19.316406 -27.40625 20.421875 -24.4375 C 21.523438 -21.476562 23.457031 -18.972656 26.21875 -16.921875 C 28.988281 -14.878906 32.394531 -13.859375 36.4375 -13.859375 C 42.25 -13.859375 46.632812 -15.847656 49.59375 -19.828125 C 52.550781 -23.816406 54.03125 -28.632812 54.03125 -34.28125 C 54.03125 -39.863281 52.519531 -44.660156 49.5 -48.671875 C 46.488281 -52.691406 42.132812 -54.703125 36.4375 -54.703125 C 30.789062 -54.703125 26.429688 -52.691406 23.359375 -48.671875 C 20.296875 -44.660156 18.765625 -39.863281 18.765625 -34.28125 Z M 18.765625 -34.28125 "/></g></g><g style="fill:rgb(83.139038%,65.879822%,52.549744%);fill-opacity:1;"><g transform="translate(652.30566, 607.207258)"><path style="stroke:none;" d="M 4.984375 -68.46875 L 29.46875 -68.46875 C 36.050781 -68.46875 41.414062 -66.710938 45.5625 -63.203125 C 49.71875 -59.691406 51.796875 -54.671875 51.796875 -48.140625 C 51.796875 -43.109375 50.535156 -38.890625 48.015625 -35.484375 C 45.492188 -32.078125 42.078125 -29.679688 37.765625 -28.296875 L 61.34375 0 L 41.5 0 L 20.578125 -27.0625 L 20.578125 0 L 4.984375 0 Z M 20.578125 -38.09375 L 22.40625 -38.09375 C 23.84375 -38.09375 25.0625 -38.117188 26.0625 -38.171875 C 27.0625 -38.234375 28.195312 -38.429688 29.46875 -38.765625 C 30.738281 -39.097656 31.757812 -39.566406 32.53125 -40.171875 C 33.3125 -40.773438 33.976562 -41.660156 34.53125 -42.828125 C 35.082031 -43.992188 35.359375 -45.40625 35.359375 -47.0625 C 35.359375 -48.71875 35.082031 -50.125 34.53125 -51.28125 C 33.976562 -52.445312 33.3125 -53.332031 32.53125 -53.9375 C 31.757812 -54.550781 30.738281 -55.023438 29.46875 -55.359375 C 28.195312 -55.691406 27.0625 -55.882812 26.0625 -55.9375 C 25.0625 -56 23.84375 -56.03125 22.40625 -56.03125 L 20.578125 -56.03125 Z M 20.578125 -38.09375 "/></g></g><g style="fill:rgb(83.139038%,65.879822%,52.549744%);fill-opacity:1;"><g transform="translate(711.727833, 607.207258)"><path style="stroke:none;" d="M 20.578125 -42.5 L 20.578125 0 L 4.984375 0 L 4.984375 -68.46875 L 20.578125 -68.46875 L 47.8125 -25.984375 L 47.96875 -25.984375 L 47.96875 -68.46875 L 63.578125 -68.46875 L 63.578125 0 L 47.96875 0 L 20.75 -42.5 Z M 20.578125 -42.5 "/></g></g><g style="fill:rgb(83.139038%,65.879822%,52.549744%);fill-opacity:1;"><g transform="translate(780.279112, 607.207258)"><path style="stroke:none;" d="M 44.15625 -68.46875 L 44.15625 -54.78125 L 20.578125 -54.78125 L 20.578125 -41.171875 L 43.15625 -41.171875 L 43.15625 -27.46875 L 20.578125 -27.46875 L 20.578125 -13.6875 L 44.15625 -13.6875 L 44.15625 0 L 4.984375 0 L 4.984375 -68.46875 Z M 44.15625 -68.46875 "/></g></g><g style="fill:rgb(83.139038%,65.879822%,52.549744%);fill-opacity:1;"><g transform="translate(828.414379, 607.207258)"><path style="stroke:none;" d="M 4.984375 -68.46875 L 29.46875 -68.46875 C 36.050781 -68.46875 41.414062 -66.710938 45.5625 -63.203125 C 49.71875 -59.691406 51.796875 -54.671875 51.796875 -48.140625 C 51.796875 -43.109375 50.535156 -38.890625 48.015625 -35.484375 C 45.492188 -32.078125 42.078125 -29.679688 37.765625 -28.296875 L 61.34375 0 L 41.5 0 L 20.578125 -27.0625 L 20.578125 0 L 4.984375 0 Z M 20.578125 -38.09375 L 22.40625 -38.09375 C 23.84375 -38.09375 25.0625 -38.117188 26.0625 -38.171875 C 27.0625 -38.234375 28.195312 -38.429688 29.46875 -38.765625 C 30.738281 -39.097656 31.757812 -39.566406 32.53125 -40.171875 C 33.3125 -40.773438 33.976562 -41.660156 34.53125 -42.828125 C 35.082031 -43.992188 35.359375 -45.40625 35.359375 -47.0625 C 35.359375 -48.71875 35.082031 -50.125 34.53125 -51.28125 C 33.976562 -52.445312 33.3125 -53.332031 32.53125 -53.9375 C 31.757812 -54.550781 30.738281 -55.023438 29.46875 -55.359375 C 28.195312 -55.691406 27.0625 -55.882812 26.0625 -55.9375 C 25.0625 -56 23.84375 -56.03125 22.40625 -56.03125 L 20.578125 -56.03125 Z M 20.578125 -38.09375 "/></g></g><g style="fill:rgb(100%,100%,100%);fill-opacity:1;"><g transform="translate(371.84493, 665.883741)"><path style="stroke:none;" d="M 2.171875 -29.796875 L 12.828125 -29.796875 C 15.691406 -29.796875 18.023438 -29.03125 19.828125 -27.5 C 21.640625 -25.976562 22.546875 -23.796875 22.546875 -20.953125 C 22.546875 -18.765625 21.992188 -16.925781 20.890625 -15.4375 C 19.796875 -13.957031 18.3125 -12.914062 16.4375 -12.3125 L 26.703125 0 L 18.0625 0 L 8.953125 -11.78125 L 8.953125 0 L 2.171875 0 Z M 8.953125 -16.578125 L 9.75 -16.578125 C 10.375 -16.578125 10.90625 -16.585938 11.34375 -16.609375 C 11.78125 -16.640625 12.273438 -16.726562 12.828125 -16.875 C 13.378906 -17.019531 13.820312 -17.222656 14.15625 -17.484375 C 14.5 -17.742188 14.789062 -18.128906 15.03125 -18.640625 C 15.269531 -19.148438 15.390625 -19.765625 15.390625 -20.484375 C 15.390625 -21.203125 15.269531 -21.8125 15.03125 -22.3125 C 14.789062 -22.820312 14.5 -23.207031 14.15625 -23.46875 C 13.820312 -23.738281 13.378906 -23.945312 12.828125 -24.09375 C 12.273438 -24.238281 11.78125 -24.320312 11.34375 -24.34375 C 10.90625 -24.375 10.375 -24.390625 9.75 -24.390625 L 8.953125 -24.390625 Z M 8.953125 -16.578125 "/></g></g><g style="fill:rgb(100%,100%,100%);fill-opacity:1;"><g transform="translate(426.616545, 665.883741)"><path style="stroke:none;" d="M 19.21875 -29.796875 L 19.21875 -23.84375 L 8.953125 -23.84375 L 8.953125 -17.921875 L 18.78125 -17.921875 L 18.78125 -11.953125 L 8.953125 -11.953125 L 8.953125 -5.953125 L 19.21875 -5.953125 L 19.21875 0 L 2.171875 0 L 2.171875 -29.796875 Z M 19.21875 -29.796875 "/></g></g><g style="fill:rgb(100%,100%,100%);fill-opacity:1;"><g transform="translate(476.475127, 665.883741)"><path style="stroke:none;" d="M 13.15625 -30.34375 C 14.757812 -30.34375 16.332031 -30.109375 17.875 -29.640625 C 19.414062 -29.171875 20.5625 -28.707031 21.3125 -28.25 L 22.390625 -27.53125 L 19.65625 -22.109375 C 19.4375 -22.253906 19.132812 -22.441406 18.75 -22.671875 C 18.363281 -22.898438 17.640625 -23.207031 16.578125 -23.59375 C 15.515625 -23.976562 14.53125 -24.171875 13.625 -24.171875 C 12.488281 -24.171875 11.613281 -23.925781 11 -23.4375 C 10.382812 -22.957031 10.078125 -22.3125 10.078125 -21.5 C 10.078125 -21.082031 10.222656 -20.695312 10.515625 -20.34375 C 10.804688 -20 11.300781 -19.628906 12 -19.234375 C 12.695312 -18.835938 13.304688 -18.519531 13.828125 -18.28125 C 14.359375 -18.039062 15.179688 -17.679688 16.296875 -17.203125 C 18.222656 -16.378906 19.863281 -15.257812 21.21875 -13.84375 C 22.582031 -12.4375 23.265625 -10.84375 23.265625 -9.0625 C 23.265625 -7.351562 22.957031 -5.859375 22.34375 -4.578125 C 21.726562 -3.304688 20.882812 -2.304688 19.8125 -1.578125 C 18.738281 -0.859375 17.550781 -0.328125 16.25 0.015625 C 14.957031 0.367188 13.550781 0.546875 12.03125 0.546875 C 10.726562 0.546875 9.453125 0.410156 8.203125 0.140625 C 6.953125 -0.117188 5.90625 -0.445312 5.0625 -0.84375 C 4.21875 -1.238281 3.457031 -1.628906 2.78125 -2.015625 C 2.101562 -2.398438 1.609375 -2.726562 1.296875 -3 L 0.828125 -3.390625 L 4.234375 -9.109375 C 4.515625 -8.867188 4.90625 -8.5625 5.40625 -8.1875 C 5.914062 -7.8125 6.816406 -7.3125 8.109375 -6.6875 C 9.398438 -6.0625 10.539062 -5.75 11.53125 -5.75 C 14.394531 -5.75 15.828125 -6.722656 15.828125 -8.671875 C 15.828125 -9.078125 15.722656 -9.453125 15.515625 -9.796875 C 15.304688 -10.148438 14.941406 -10.5 14.421875 -10.84375 C 13.910156 -11.195312 13.457031 -11.476562 13.0625 -11.6875 C 12.664062 -11.894531 12.015625 -12.207031 11.109375 -12.625 C 10.203125 -13.050781 9.535156 -13.367188 9.109375 -13.578125 C 7.296875 -14.472656 5.894531 -15.585938 4.90625 -16.921875 C 3.925781 -18.253906 3.4375 -19.691406 3.4375 -21.234375 C 3.4375 -23.910156 4.421875 -26.097656 6.390625 -27.796875 C 8.367188 -29.492188 10.625 -30.34375 13.15625 -30.34375 Z M 13.15625 -30.34375 "/></g></g><g style="fill:rgb(100%,100%,100%);fill-opacity:1;"><g transform="translate(529.657234, 665.883741)"><path style="stroke:none;" d="M 0.28125 -23.84375 L 0.28125 -29.796875 L 21.234375 -29.796875 L 21.234375 -23.84375 L 14.15625 -23.84375 L 14.15625 0 L 7.375 0 L 7.375 -23.84375 Z M 0.28125 -23.84375 "/></g></g><g style="fill:rgb(100%,100%,100%);fill-opacity:1;"><g transform="translate(580.093821, 665.883741)"><path style="stroke:none;" d="M 17.296875 -29.796875 L 29.328125 0 L 22.03125 0 L 19.828125 -5.953125 L 8.484375 -5.953125 L 6.28125 0 L -1.015625 0 L 11.015625 -29.796875 Z M 17.515625 -11.921875 L 14.203125 -20.59375 L 14.125 -20.59375 L 10.796875 -11.921875 Z M 17.515625 -11.921875 "/></g></g><g style="fill:rgb(100%,100%,100%);fill-opacity:1;"><g transform="translate(637.321949, 665.883741)"><path style="stroke:none;" d="M 25.078125 -29.796875 L 25.078125 -10.578125 C 25.078125 -6.921875 24.085938 -4.148438 22.109375 -2.265625 C 20.128906 -0.390625 17.238281 0.546875 13.4375 0.546875 C 9.632812 0.546875 6.742188 -0.390625 4.765625 -2.265625 C 2.796875 -4.148438 1.8125 -6.921875 1.8125 -10.578125 L 1.8125 -29.796875 L 8.59375 -29.796875 L 8.59375 -12.578125 C 8.59375 -10.160156 8.972656 -8.484375 9.734375 -7.546875 C 10.492188 -6.609375 11.726562 -6.140625 13.4375 -6.140625 C 15.144531 -6.140625 16.378906 -6.609375 17.140625 -7.546875 C 17.898438 -8.484375 18.28125 -10.160156 18.28125 -12.578125 L 18.28125 -29.796875 Z M 25.078125 -29.796875 "/></g></g><g style="fill:rgb(100%,100%,100%);fill-opacity:1;"><g transform="translate(693.105067, 665.883741)"><path style="stroke:none;" d="M 2.171875 -29.796875 L 12.828125 -29.796875 C 15.691406 -29.796875 18.023438 -29.03125 19.828125 -27.5 C 21.640625 -25.976562 22.546875 -23.796875 22.546875 -20.953125 C 22.546875 -18.765625 21.992188 -16.925781 20.890625 -15.4375 C 19.796875 -13.957031 18.3125 -12.914062 16.4375 -12.3125 L 26.703125 0 L 18.0625 0 L 8.953125 -11.78125 L 8.953125 0 L 2.171875 0 Z M 8.953125 -16.578125 L 9.75 -16.578125 C 10.375 -16.578125 10.90625 -16.585938 11.34375 -16.609375 C 11.78125 -16.640625 12.273438 -16.726562 12.828125 -16.875 C 13.378906 -17.019531 13.820312 -17.222656 14.15625 -17.484375 C 14.5 -17.742188 14.789062 -18.128906 15.03125 -18.640625 C 15.269531 -19.148438 15.390625 -19.765625 15.390625 -20.484375 C 15.390625 -21.203125 15.269531 -21.8125 15.03125 -22.3125 C 14.789062 -22.820312 14.5 -23.207031 14.15625 -23.46875 C 13.820312 -23.738281 13.378906 -23.945312 12.828125 -24.09375 C 12.273438 -24.238281 11.78125 -24.320312 11.34375 -24.34375 C 10.90625 -24.375 10.375 -24.390625 9.75 -24.390625 L 8.953125 -24.390625 Z M 8.953125 -16.578125 "/></g></g><g style="fill:rgb(100%,100%,100%);fill-opacity:1;"><g transform="translate(747.876667, 665.883741)"><path style="stroke:none;" d="M 17.296875 -29.796875 L 29.328125 0 L 22.03125 0 L 19.828125 -5.953125 L 8.484375 -5.953125 L 6.28125 0 L -1.015625 0 L 11.015625 -29.796875 Z M 17.515625 -11.921875 L 14.203125 -20.59375 L 14.125 -20.59375 L 10.796875 -11.921875 Z M 17.515625 -11.921875 "/></g></g><g style="fill:rgb(100%,100%,100%);fill-opacity:1;"><g transform="translate(805.104794, 665.883741)"><path style="stroke:none;" d="M 8.953125 -18.5 L 8.953125 0 L 2.171875 0 L 2.171875 -29.796875 L 8.953125 -29.796875 L 20.8125 -11.3125 L 20.875 -11.3125 L 20.875 -29.796875 L 27.671875 -29.796875 L 27.671875 0 L 20.875 0 L 9.03125 -18.5 Z M 8.953125 -18.5 "/></g></g><g style="fill:rgb(100%,100%,100%);fill-opacity:1;"><g transform="translate(863.850169, 665.883741)"><path style="stroke:none;" d="M 0.28125 -23.84375 L 0.28125 -29.796875 L 21.234375 -29.796875 L 21.234375 -23.84375 L 14.15625 -23.84375 L 14.15625 0 L 7.375 0 L 7.375 -23.84375 Z M 0.28125 -23.84375 "/></g></g><g clip-rule="nonzero" clip-path="url(#clip1)"><path style=" stroke:none;fill-rule:nonzero;fill:rgb(100%,100%,100%);fill-opacity:1;" d="M 226.25 537.613281 C 224.652344 537.613281 223.125 538.304688 222.070312 539.503906 L 222.042969 539.535156 C 221.425781 540.25 221.019531 541.074219 220.824219 541.933594 C 219.738281 542.179688 218.742188 542.753906 217.980469 543.585938 C 217.21875 544.410156 216.753906 545.40625 216.585938 546.4375 C 215.472656 546.621094 214.445312 547.136719 213.625 547.9375 C 212.835938 548.695312 212.320312 549.636719 212.082031 550.628906 C 211.210938 550.835938 210.398438 551.257812 209.714844 551.855469 C 207.472656 553.820312 207.199219 557.273438 209.113281 559.574219 L 235.625 591.546875 L 235.679688 591.617188 C 239.234375 595.730469 244.097656 598.101562 249.375 598.289062 C 249.605469 598.300781 249.828125 598.304688 250.054688 598.304688 C 252.816406 598.304688 255.503906 597.695312 257.984375 596.519531 C 260.964844 599.597656 264.199219 602.996094 267.96875 607.011719 C 268.617188 607.707031 269.269531 608.410156 269.925781 609.113281 C 268.292969 610.601562 266.6875 612.054688 265.132812 613.460938 C 259.015625 618.972656 252.871094 624.390625 246.863281 629.558594 C 239.667969 635.753906 233.714844 640.683594 228.136719 645.082031 L 228.113281 645.101562 C 227.375 645.699219 226.679688 646.386719 226.121094 647.101562 C 221.96875 652.371094 222.875 660.03125 228.136719 664.1875 C 230.273438 665.871094 232.949219 666.796875 235.667969 666.796875 C 239.417969 666.796875 242.902344 665.109375 245.222656 662.164062 C 249.625 656.582031 254.410156 650.808594 260.746094 643.4375 C 265.941406 637.40625 271.359375 631.261719 276.851562 625.171875 C 278.109375 623.777344 279.398438 622.351562 280.734375 620.875 C 282.035156 622.304688 283.257812 623.65625 284.421875 624.949219 C 289.941406 631.0625 295.355469 637.207031 300.527344 643.214844 C 306.855469 650.582031 311.644531 656.359375 316.050781 661.941406 C 316.644531 662.695312 317.34375 663.386719 318.074219 663.960938 C 320.203125 665.644531 322.875 666.574219 325.597656 666.574219 C 329.347656 666.574219 332.828125 664.882812 335.148438 661.941406 C 339.300781 656.675781 338.398438 649.015625 333.136719 644.859375 C 327.566406 640.464844 321.613281 635.53125 314.40625 629.335938 C 308.382812 624.15625 302.242188 618.738281 296.136719 613.238281 C 294.671875 611.914062 293.167969 610.546875 291.570312 609.097656 C 292.148438 608.476562 292.726562 607.855469 293.304688 607.242188 C 297.378906 602.894531 300.84375 599.253906 304.027344 595.984375 C 306.238281 596.683594 308.753906 597.050781 311.460938 597.050781 C 321.015625 597.050781 330.984375 592.789062 338.121094 585.648438 C 343.960938 579.8125 347.875 572.191406 349.148438 564.1875 C 350.402344 556.34375 348.8125 549.324219 344.898438 545.40625 C 341.953125 542.457031 337.140625 540.835938 331.355469 540.835938 C 321.746094 540.835938 311.769531 545.078125 304.660156 552.183594 C 299.515625 557.328125 295.847656 564.261719 294.332031 571.703125 C 293.269531 576.902344 293.34375 582.050781 294.476562 586.132812 C 291.167969 589.347656 287.554688 592.789062 283.066406 596.996094 C 282.300781 597.714844 281.527344 598.4375 280.753906 599.152344 C 279.902344 598.363281 279.050781 597.570312 278.210938 596.777344 C 274.050781 592.875 270.664062 589.65625 267.566406 586.65625 C 268.671875 584.109375 269.191406 581.371094 269.078125 578.574219 C 268.863281 573.292969 266.457031 568.441406 262.296875 564.898438 L 262.191406 564.8125 L 229.71875 538.832031 C 228.730469 538.042969 227.503906 537.613281 226.25 537.613281 Z M 226.25 542.074219 C 226.488281 542.074219 226.730469 542.152344 226.933594 542.3125 L 259.40625 568.296875 C 262.621094 571.027344 264.457031 574.734375 264.621094 578.75 C 264.746094 581.882812 263.824219 584.898438 262.011719 587.46875 C 266.335938 591.710938 270.734375 595.886719 275.15625 600.027344 C 277.007812 601.773438 278.886719 603.492188 280.753906 605.222656 C 282.542969 603.566406 284.34375 601.921875 286.117188 600.253906 C 290.679688 595.980469 295.207031 591.675781 299.664062 587.296875 C 296.292969 580.640625 297.757812 565.398438 307.8125 555.335938 C 314.785156 548.367188 324.019531 545.296875 331.355469 545.296875 C 335.847656 545.296875 339.628906 546.449219 341.746094 548.5625 C 347.542969 554.363281 346.210938 571.25 334.96875 582.492188 C 327.992188 589.472656 318.792969 592.589844 311.460938 592.589844 C 308.101562 592.589844 305.136719 591.933594 302.949219 590.699219 C 298.59375 595.136719 294.3125 599.648438 290.054688 604.1875 C 288.441406 605.902344 286.851562 607.636719 285.25 609.367188 C 287.878906 611.765625 290.503906 614.164062 293.152344 616.550781 C 299.199219 622.007812 305.316406 627.398438 311.496094 632.71875 C 317.679688 638.035156 323.9375 643.289062 330.371094 648.359375 C 333.710938 650.996094 334.28125 655.839844 331.648438 659.179688 C 330.128906 661.109375 327.871094 662.113281 325.597656 662.113281 C 323.925781 662.113281 322.242188 661.574219 320.828125 660.457031 C 320.359375 660.085938 319.910156 659.628906 319.554688 659.179688 C 314.480469 652.746094 309.226562 646.496094 303.90625 640.304688 C 298.582031 634.125 293.195312 628.007812 287.738281 621.960938 C 285.414062 619.382812 283.078125 616.816406 280.734375 614.253906 C 278.328125 616.890625 275.929688 619.53125 273.535156 622.183594 C 268.078125 628.230469 262.683594 634.347656 257.367188 640.527344 C 252.046875 646.714844 246.792969 652.96875 241.71875 659.402344 C 240.203125 661.332031 237.941406 662.335938 235.667969 662.335938 C 233.996094 662.335938 232.316406 661.796875 230.902344 660.679688 C 227.558594 658.050781 226.992188 653.203125 229.625 649.863281 C 229.996094 649.386719 230.445312 648.945312 230.902344 648.585938 C 237.332031 643.511719 243.589844 638.257812 249.773438 632.941406 C 255.957031 627.621094 262.070312 622.230469 268.121094 616.773438 C 270.835938 614.320312 273.546875 611.855469 276.246094 609.386719 C 274.574219 607.578125 272.910156 605.757812 271.21875 603.964844 C 267.089844 599.5625 262.9375 595.1875 258.714844 590.878906 C 256.1875 592.796875 253.1875 593.84375 250.054688 593.84375 C 249.882812 593.84375 249.710938 593.839844 249.539062 593.832031 C 245.511719 593.683594 241.792969 591.867188 239.054688 588.703125 L 212.542969 556.730469 C 212.167969 556.273438 212.207031 555.597656 212.65625 555.210938 C 212.867188 555.023438 213.125 554.933594 213.386719 554.933594 C 213.675781 554.933594 213.960938 555.042969 214.175781 555.265625 L 241.46875 583.480469 C 241.699219 583.726562 241.957031 583.859375 242.207031 583.867188 L 242.234375 583.867188 C 242.371094 583.867188 242.5625 583.828125 242.730469 583.664062 C 243.070312 583.316406 243.03125 582.667969 242.636719 582.238281 L 216.671875 552.644531 C 216.285156 552.207031 216.296875 551.550781 216.726562 551.136719 C 216.941406 550.929688 217.214844 550.824219 217.492188 550.824219 C 217.757812 550.824219 218.023438 550.925781 218.234375 551.113281 L 247.195312 577.664062 C 247.449219 577.921875 247.726562 578.046875 248.003906 578.046875 C 248.15625 578.046875 248.378906 578.011719 248.5625 577.824219 C 248.746094 577.644531 248.78125 577.421875 248.78125 577.273438 C 248.78125 576.996094 248.652344 576.71875 248.4375 576.515625 L 221.273438 548.109375 C 220.871094 547.6875 220.867188 547.023438 221.269531 546.601562 C 221.476562 546.371094 221.765625 546.253906 222.058594 546.253906 C 222.308594 546.253906 222.5625 546.339844 222.769531 546.515625 L 252.925781 571.867188 C 253.183594 572.105469 253.5 572.222656 253.789062 572.222656 C 254.023438 572.222656 254.242188 572.144531 254.402344 571.988281 C 254.574219 571.816406 254.605469 571.617188 254.601562 571.480469 C 254.589844 571.230469 254.464844 570.972656 254.242188 570.78125 L 225.5 543.96875 C 225.070312 543.566406 225.035156 542.898438 225.417969 542.449219 C 225.640625 542.207031 225.941406 542.074219 226.25 542.074219 "/></g></g></svg>